<svg width="44" height="18" viewBox="0 0 44 18" fill="none" xmlns="http://www.w3.org/2000/svg">
    <path d="M9.04785 12.1016V14H2.61426V12.1016H9.04785ZM3.34375 1.20312V14H0.926758V1.20312H3.34375ZM10.0762 9.3418V9.15723C10.0762 8.45996 10.1758 7.81836 10.375 7.23242C10.5742 6.64062 10.8643 6.12793 11.2451 5.69434C11.626 5.26074 12.0918 4.92383 12.6426 4.68359C13.1934 4.4375 13.8203 4.31445 14.5234 4.31445C15.2383 4.31445 15.8711 4.4375 16.4219 4.68359C16.9785 4.92383 17.4473 5.26074 17.8281 5.69434C18.209 6.12793 18.499 6.64062 18.6982 7.23242C18.8975 7.81836 18.9971 8.45996 18.9971 9.15723V9.3418C18.9971 10.0332 18.8975 10.6748 18.6982 11.2666C18.499 11.8525 18.209 12.3652 17.8281 12.8047C17.4473 13.2383 16.9814 13.5752 16.4307 13.8154C15.8799 14.0557 15.25 14.1758 14.541 14.1758C13.8379 14.1758 13.208 14.0557 12.6514 13.8154C12.0947 13.5752 11.626 13.2383 11.2451 12.8047C10.8643 12.3652 10.5742 11.8525 10.375 11.2666C10.1758 10.6748 10.0762 10.0332 10.0762 9.3418ZM12.3965 9.15723V9.3418C12.3965 9.75781 12.4375 10.1475 12.5195 10.5107C12.6016 10.874 12.7275 11.1934 12.8975 11.4688C13.0674 11.7441 13.2871 11.9609 13.5566 12.1191C13.832 12.2715 14.1602 12.3477 14.541 12.3477C14.916 12.3477 15.2383 12.2715 15.5078 12.1191C15.7773 11.9609 15.9971 11.7441 16.167 11.4688C16.3428 11.1934 16.4717 10.874 16.5537 10.5107C16.6357 10.1475 16.6768 9.75781 16.6768 9.3418V9.15723C16.6768 8.74707 16.6357 8.36328 16.5537 8.00586C16.4717 7.64258 16.3428 7.32324 16.167 7.04785C15.9971 6.7666 15.7744 6.54688 15.499 6.38867C15.2295 6.22461 14.9043 6.14258 14.5234 6.14258C14.1484 6.14258 13.8262 6.22461 13.5566 6.38867C13.2871 6.54688 13.0674 6.7666 12.8975 7.04785C12.7275 7.32324 12.6016 7.64258 12.5195 8.00586C12.4375 8.36328 12.3965 8.74707 12.3965 9.15723ZM26.7314 4.49023H28.8408V13.71C28.8408 14.5713 28.6533 15.3008 28.2783 15.8984C27.9092 16.502 27.3906 16.959 26.7227 17.2695C26.0547 17.5859 25.2783 17.7441 24.3936 17.7441C24.0127 17.7441 23.5996 17.6914 23.1543 17.5859C22.7148 17.4805 22.29 17.3135 21.8799 17.085C21.4756 16.8623 21.1387 16.5723 20.8691 16.2148L21.915 14.8438C22.2314 15.2129 22.5889 15.4912 22.9873 15.6787C23.3857 15.8721 23.8164 15.9688 24.2793 15.9688C24.748 15.9688 25.1465 15.8809 25.4746 15.7051C25.8086 15.5352 26.0635 15.2832 26.2393 14.9492C26.4209 14.6211 26.5117 14.2168 26.5117 13.7363V6.66113L26.7314 4.49023ZM20.3066 9.35938V9.1748C20.3066 8.44824 20.3945 7.78906 20.5703 7.19727C20.7461 6.59961 20.998 6.08691 21.3262 5.65918C21.6602 5.23145 22.0615 4.90039 22.5303 4.66602C23.0049 4.43164 23.5381 4.31445 24.1299 4.31445C24.7568 4.31445 25.2842 4.42871 25.7119 4.65723C26.1455 4.88574 26.5029 5.21094 26.7842 5.63281C27.0713 6.05469 27.2939 6.55566 27.4521 7.13574C27.6162 7.70996 27.7422 8.34277 27.8301 9.03418V9.53516C27.748 10.209 27.6162 10.8271 27.4346 11.3896C27.2588 11.9521 27.0244 12.4443 26.7314 12.8662C26.4385 13.2822 26.0752 13.6045 25.6416 13.833C25.208 14.0615 24.6982 14.1758 24.1123 14.1758C23.5264 14.1758 22.999 14.0557 22.5303 13.8154C22.0615 13.5752 21.6602 13.2383 21.3262 12.8047C20.998 12.3711 20.7461 11.8613 20.5703 11.2754C20.3945 10.6895 20.3066 10.0508 20.3066 9.35938ZM22.627 9.1748V9.35938C22.627 9.76953 22.668 10.1533 22.75 10.5107C22.832 10.8682 22.958 11.1846 23.1279 11.46C23.2979 11.7295 23.5117 11.9404 23.7695 12.0928C24.0273 12.2451 24.335 12.3213 24.6924 12.3213C25.1729 12.3213 25.5654 12.2217 25.8701 12.0225C26.1807 11.8174 26.415 11.5391 26.5732 11.1875C26.7373 10.8301 26.8428 10.4287 26.8896 9.9834V8.60352C26.8604 8.25195 26.7959 7.92676 26.6963 7.62793C26.6025 7.3291 26.4707 7.07129 26.3008 6.85449C26.1309 6.6377 25.9141 6.46777 25.6504 6.34473C25.3867 6.22168 25.0732 6.16016 24.71 6.16016C24.3584 6.16016 24.0508 6.23926 23.7871 6.39746C23.5234 6.5498 23.3066 6.76367 23.1367 7.03906C22.9668 7.31445 22.8379 7.63379 22.75 7.99707C22.668 8.36035 22.627 8.75293 22.627 9.1748ZM33.3936 4.49023V14H31.0645V4.49023H33.3936ZM30.9062 2.00293C30.9062 1.65723 31.0234 1.37012 31.2578 1.1416C31.498 0.913086 31.8203 0.798828 32.2246 0.798828C32.6289 0.798828 32.9482 0.913086 33.1826 1.1416C33.4229 1.37012 33.543 1.65723 33.543 2.00293C33.543 2.34277 33.4229 2.62695 33.1826 2.85547C32.9482 3.08398 32.6289 3.19824 32.2246 3.19824C31.8203 3.19824 31.498 3.08398 31.2578 2.85547C31.0234 2.62695 30.9062 2.34277 30.9062 2.00293ZM37.8848 6.52051V14H35.5645V4.49023H37.7441L37.8848 6.52051ZM37.5156 8.90234H36.8301C36.8359 8.21094 36.9297 7.58398 37.1113 7.02148C37.293 6.45898 37.5479 5.97559 37.876 5.57129C38.21 5.16699 38.6055 4.85645 39.0625 4.63965C39.5195 4.42285 40.0293 4.31445 40.5918 4.31445C41.0488 4.31445 41.4619 4.37891 41.8311 4.50781C42.2002 4.63672 42.5166 4.8418 42.7803 5.12305C43.0498 5.4043 43.2549 5.77344 43.3955 6.23047C43.542 6.68164 43.6152 7.23828 43.6152 7.90039V14H41.2773V7.88281C41.2773 7.44922 41.2129 7.10645 41.084 6.85449C40.9609 6.60254 40.7793 6.42383 40.5391 6.31836C40.3047 6.21289 40.0146 6.16016 39.6689 6.16016C39.3115 6.16016 38.998 6.2334 38.7285 6.37988C38.4648 6.52051 38.2422 6.7168 38.0605 6.96875C37.8848 7.2207 37.75 7.51074 37.6562 7.83887C37.5625 8.16699 37.5156 8.52148 37.5156 8.90234Z" fill="#1ABC00"/>
</svg>
