<svg width="59" height="17" viewBox="0 0 59 17" fill="none" xmlns="http://www.w3.org/2000/svg">
    <path d="M8.30566 9.76562C8.30566 9.4668 8.25879 9.20312 8.16504 8.97461C8.07715 8.74023 7.91895 8.5293 7.69043 8.3418C7.46777 8.1543 7.15723 7.97559 6.75879 7.80566C6.36621 7.63574 5.86816 7.46289 5.26465 7.28711C4.63184 7.09961 4.06055 6.8916 3.55078 6.66309C3.04102 6.42871 2.60449 6.16211 2.24121 5.86328C1.87793 5.56445 1.59961 5.22168 1.40625 4.83496C1.21289 4.44824 1.11621 4.00586 1.11621 3.50781C1.11621 3.00977 1.21875 2.5498 1.42383 2.12793C1.62891 1.70605 1.92188 1.33984 2.30273 1.0293C2.68945 0.712891 3.14941 0.466797 3.68262 0.291016C4.21582 0.115234 4.81055 0.0273438 5.4668 0.0273438C6.42773 0.0273438 7.24219 0.211914 7.91016 0.581055C8.58398 0.944336 9.09668 1.42188 9.44824 2.01367C9.7998 2.59961 9.97559 3.22656 9.97559 3.89453H8.28809C8.28809 3.41406 8.18555 2.98926 7.98047 2.62012C7.77539 2.24512 7.46484 1.95215 7.04883 1.74121C6.63281 1.52441 6.10547 1.41602 5.4668 1.41602C4.86328 1.41602 4.36523 1.50684 3.97266 1.68848C3.58008 1.87012 3.28711 2.11621 3.09375 2.42676C2.90625 2.7373 2.8125 3.0918 2.8125 3.49023C2.8125 3.75977 2.86816 4.00586 2.97949 4.22852C3.09668 4.44531 3.27539 4.64746 3.51562 4.83496C3.76172 5.02246 4.07227 5.19531 4.44727 5.35352C4.82812 5.51172 5.28223 5.66406 5.80957 5.81055C6.53613 6.01562 7.16309 6.24414 7.69043 6.49609C8.21777 6.74805 8.65137 7.03223 8.99121 7.34863C9.33691 7.65918 9.5918 8.01367 9.75586 8.41211C9.92578 8.80469 10.0107 9.25 10.0107 9.74805C10.0107 10.2695 9.90527 10.7412 9.69434 11.1631C9.4834 11.585 9.18164 11.9453 8.78906 12.2441C8.39648 12.543 7.9248 12.7744 7.37402 12.9385C6.8291 13.0967 6.21973 13.1758 5.5459 13.1758C4.9541 13.1758 4.37109 13.0938 3.79688 12.9297C3.22852 12.7656 2.70996 12.5195 2.24121 12.1914C1.77832 11.8633 1.40625 11.459 1.125 10.9785C0.849609 10.4922 0.711914 9.92969 0.711914 9.29102H2.39941C2.39941 9.73047 2.48438 10.1084 2.6543 10.4248C2.82422 10.7354 3.05566 10.9932 3.34863 11.1982C3.64746 11.4033 3.98438 11.5557 4.35938 11.6553C4.74023 11.749 5.13574 11.7959 5.5459 11.7959C6.1377 11.7959 6.63867 11.7139 7.04883 11.5498C7.45898 11.3857 7.76953 11.1514 7.98047 10.8467C8.19727 10.542 8.30566 10.1816 8.30566 9.76562ZM13.6934 3.49023V13H12.0586V3.49023H13.6934ZM11.9355 0.967773C11.9355 0.704102 12.0146 0.481445 12.1729 0.299805C12.3369 0.118164 12.5771 0.0273438 12.8936 0.0273438C13.2041 0.0273438 13.4414 0.118164 13.6055 0.299805C13.7754 0.481445 13.8604 0.704102 13.8604 0.967773C13.8604 1.21973 13.7754 1.43652 13.6055 1.61816C13.4414 1.79395 13.2041 1.88184 12.8936 1.88184C12.5771 1.88184 12.3369 1.79395 12.1729 1.61816C12.0146 1.43652 11.9355 1.21973 11.9355 0.967773ZM22.4648 3.49023H23.9414V12.7979C23.9414 13.6357 23.7715 14.3506 23.4316 14.9424C23.0918 15.5342 22.6172 15.9824 22.0078 16.2871C21.4043 16.5977 20.707 16.7529 19.916 16.7529C19.5879 16.7529 19.2012 16.7002 18.7559 16.5947C18.3164 16.4951 17.8828 16.3223 17.4551 16.0762C17.0332 15.8359 16.6787 15.5107 16.3916 15.1006L17.2441 14.1338C17.6426 14.6143 18.0586 14.9482 18.4922 15.1357C18.9316 15.3232 19.3652 15.417 19.793 15.417C20.3086 15.417 20.7539 15.3203 21.1289 15.127C21.5039 14.9336 21.7939 14.6465 21.999 14.2656C22.21 13.8906 22.3154 13.4277 22.3154 12.877V5.58203L22.4648 3.49023ZM15.917 8.35059V8.16602C15.917 7.43945 16.002 6.78027 16.1719 6.18848C16.3477 5.59082 16.5967 5.07812 16.9189 4.65039C17.2471 4.22266 17.6426 3.89453 18.1055 3.66602C18.5684 3.43164 19.0898 3.31445 19.6699 3.31445C20.2676 3.31445 20.7891 3.41992 21.2344 3.63086C21.6855 3.83594 22.0664 4.1377 22.377 4.53613C22.6934 4.92871 22.9424 5.40332 23.124 5.95996C23.3057 6.5166 23.4316 7.14648 23.502 7.84961V8.6582C23.4375 9.35547 23.3115 9.98242 23.124 10.5391C22.9424 11.0957 22.6934 11.5703 22.377 11.9629C22.0664 12.3555 21.6855 12.6572 21.2344 12.8682C20.7832 13.0732 20.2559 13.1758 19.6523 13.1758C19.084 13.1758 18.5684 13.0557 18.1055 12.8154C17.6484 12.5752 17.2559 12.2383 16.9277 11.8047C16.5996 11.3711 16.3477 10.8613 16.1719 10.2754C16.002 9.68359 15.917 9.04199 15.917 8.35059ZM17.543 8.16602V8.35059C17.543 8.8252 17.5898 9.27051 17.6836 9.68652C17.7832 10.1025 17.9326 10.4688 18.1318 10.7852C18.3369 11.1016 18.5977 11.3506 18.9141 11.5322C19.2305 11.708 19.6084 11.7959 20.0479 11.7959C20.5869 11.7959 21.0322 11.6816 21.3838 11.4531C21.7354 11.2246 22.0137 10.9229 22.2188 10.5479C22.4297 10.1729 22.5938 9.76562 22.7109 9.32617V7.20801C22.6465 6.88574 22.5469 6.5752 22.4121 6.27637C22.2832 5.97168 22.1133 5.70215 21.9023 5.46777C21.6973 5.22754 21.4424 5.03711 21.1377 4.89648C20.833 4.75586 20.4756 4.68555 20.0654 4.68555C19.6201 4.68555 19.2363 4.7793 18.9141 4.9668C18.5977 5.14844 18.3369 5.40039 18.1318 5.72266C17.9326 6.03906 17.7832 6.4082 17.6836 6.83008C17.5898 7.24609 17.543 7.69141 17.543 8.16602ZM28.0371 5.52051V13H26.4111V3.49023H27.9492L28.0371 5.52051ZM27.6504 7.88477L26.9736 7.8584C26.9795 7.20801 27.0762 6.60742 27.2637 6.05664C27.4512 5.5 27.7148 5.0166 28.0547 4.60645C28.3945 4.19629 28.7988 3.87988 29.2676 3.65723C29.7422 3.42871 30.2666 3.31445 30.8408 3.31445C31.3096 3.31445 31.7314 3.37891 32.1064 3.50781C32.4814 3.63086 32.8008 3.83008 33.0645 4.10547C33.334 4.38086 33.5391 4.73828 33.6797 5.17773C33.8203 5.61133 33.8906 6.1416 33.8906 6.76855V13H32.2559V6.75098C32.2559 6.25293 32.1826 5.85449 32.0361 5.55566C31.8896 5.25098 31.6758 5.03125 31.3945 4.89648C31.1133 4.75586 30.7676 4.68555 30.3574 4.68555C29.9531 4.68555 29.584 4.77051 29.25 4.94043C28.9219 5.11035 28.6377 5.34473 28.3975 5.64355C28.1631 5.94238 27.9785 6.28516 27.8438 6.67188C27.7148 7.05273 27.6504 7.45703 27.6504 7.88477ZM46.6436 10.8027V3.49023H48.2783V13H46.7227L46.6436 10.8027ZM46.9512 8.79883L47.6279 8.78125C47.6279 9.41406 47.5605 10 47.4258 10.5391C47.2969 11.0723 47.0859 11.5352 46.793 11.9277C46.5 12.3203 46.1162 12.6279 45.6416 12.8506C45.167 13.0674 44.5898 13.1758 43.9102 13.1758C43.4473 13.1758 43.0225 13.1084 42.6357 12.9736C42.2549 12.8389 41.9268 12.6309 41.6514 12.3496C41.376 12.0684 41.1621 11.7021 41.0098 11.251C40.8633 10.7998 40.79 10.2578 40.79 9.625V3.49023H42.416V9.64258C42.416 10.0703 42.4629 10.4248 42.5566 10.7061C42.6562 10.9814 42.7881 11.2012 42.9521 11.3652C43.1221 11.5234 43.3096 11.6348 43.5146 11.6992C43.7256 11.7637 43.9424 11.7959 44.165 11.7959C44.8564 11.7959 45.4043 11.6641 45.8086 11.4004C46.2129 11.1309 46.5029 10.7705 46.6787 10.3193C46.8604 9.8623 46.9512 9.35547 46.9512 8.79883ZM52.3828 5.31836V16.6562H50.748V3.49023H52.2422L52.3828 5.31836ZM58.79 8.16602V8.35059C58.79 9.04199 58.708 9.68359 58.5439 10.2754C58.3799 10.8613 58.1396 11.3711 57.8232 11.8047C57.5127 12.2383 57.1289 12.5752 56.6719 12.8154C56.2148 13.0557 55.6904 13.1758 55.0986 13.1758C54.4951 13.1758 53.9619 13.0762 53.499 12.877C53.0361 12.6777 52.6436 12.3877 52.3213 12.0068C51.999 11.626 51.7412 11.1689 51.5479 10.6357C51.3604 10.1025 51.2314 9.50195 51.1611 8.83398V7.84961C51.2314 7.14648 51.3633 6.5166 51.5566 5.95996C51.75 5.40332 52.0049 4.92871 52.3213 4.53613C52.6436 4.1377 53.0332 3.83594 53.4902 3.63086C53.9473 3.41992 54.4746 3.31445 55.0723 3.31445C55.6699 3.31445 56.2002 3.43164 56.6631 3.66602C57.126 3.89453 57.5156 4.22266 57.832 4.65039C58.1484 5.07812 58.3857 5.59082 58.5439 6.18848C58.708 6.78027 58.79 7.43945 58.79 8.16602ZM57.1553 8.35059V8.16602C57.1553 7.69141 57.1055 7.24609 57.0059 6.83008C56.9062 6.4082 56.751 6.03906 56.54 5.72266C56.335 5.40039 56.0713 5.14844 55.749 4.9668C55.4268 4.7793 55.043 4.68555 54.5977 4.68555C54.1875 4.68555 53.8301 4.75586 53.5254 4.89648C53.2266 5.03711 52.9717 5.22754 52.7607 5.46777C52.5498 5.70215 52.377 5.97168 52.2422 6.27637C52.1133 6.5752 52.0166 6.88574 51.9521 7.20801V9.48438C52.0693 9.89453 52.2334 10.2812 52.4443 10.6445C52.6553 11.002 52.9365 11.292 53.2881 11.5146C53.6396 11.7314 54.082 11.8398 54.6152 11.8398C55.0547 11.8398 55.4326 11.749 55.749 11.5674C56.0713 11.3799 56.335 11.125 56.54 10.8027C56.751 10.4805 56.9062 10.1113 57.0059 9.69531C57.1055 9.27344 57.1553 8.8252 57.1553 8.35059Z" fill="#8A8A8A"/>
</svg>
