<svg width="43" height="17" viewBox="0 0 43 17" fill="none" xmlns="http://www.w3.org/2000/svg">
    <path d="M8.24609 11.6201V13H1.84766V11.6201H8.24609ZM2.18164 0.203125V13H0.485352V0.203125H2.18164ZM9.51172 8.35059V8.14844C9.51172 7.46289 9.61133 6.82715 9.81055 6.24121C10.0098 5.64941 10.2969 5.13672 10.6719 4.70312C11.0469 4.26367 11.501 3.92383 12.0342 3.68359C12.5674 3.4375 13.165 3.31445 13.8271 3.31445C14.4951 3.31445 15.0957 3.4375 15.6289 3.68359C16.168 3.92383 16.625 4.26367 17 4.70312C17.3809 5.13672 17.6709 5.64941 17.8701 6.24121C18.0693 6.82715 18.1689 7.46289 18.1689 8.14844V8.35059C18.1689 9.03613 18.0693 9.67188 17.8701 10.2578C17.6709 10.8438 17.3809 11.3564 17 11.7959C16.625 12.2295 16.1709 12.5693 15.6377 12.8154C15.1104 13.0557 14.5127 13.1758 13.8447 13.1758C13.1768 13.1758 12.5762 13.0557 12.043 12.8154C11.5098 12.5693 11.0527 12.2295 10.6719 11.7959C10.2969 11.3564 10.0098 10.8438 9.81055 10.2578C9.61133 9.67188 9.51172 9.03613 9.51172 8.35059ZM11.1377 8.14844V8.35059C11.1377 8.8252 11.1934 9.27344 11.3047 9.69531C11.416 10.1113 11.583 10.4805 11.8057 10.8027C12.0342 11.125 12.3184 11.3799 12.6582 11.5674C12.998 11.749 13.3936 11.8398 13.8447 11.8398C14.29 11.8398 14.6797 11.749 15.0137 11.5674C15.3535 11.3799 15.6348 11.125 15.8574 10.8027C16.0801 10.4805 16.2471 10.1113 16.3584 9.69531C16.4756 9.27344 16.5342 8.8252 16.5342 8.35059V8.14844C16.5342 7.67969 16.4756 7.2373 16.3584 6.82129C16.2471 6.39941 16.0771 6.02734 15.8486 5.70508C15.626 5.37695 15.3447 5.11914 15.0049 4.93164C14.6709 4.74414 14.2783 4.65039 13.8271 4.65039C13.3818 4.65039 12.9893 4.74414 12.6494 4.93164C12.3154 5.11914 12.0342 5.37695 11.8057 5.70508C11.583 6.02734 11.416 6.39941 11.3047 6.82129C11.1934 7.2373 11.1377 7.67969 11.1377 8.14844ZM26.3691 3.49023H27.8457V12.7979C27.8457 13.6357 27.6758 14.3506 27.3359 14.9424C26.9961 15.5342 26.5215 15.9824 25.9121 16.2871C25.3086 16.5977 24.6113 16.7529 23.8203 16.7529C23.4922 16.7529 23.1055 16.7002 22.6602 16.5947C22.2207 16.4951 21.7871 16.3223 21.3594 16.0762C20.9375 15.8359 20.583 15.5107 20.2959 15.1006L21.1484 14.1338C21.5469 14.6143 21.9629 14.9482 22.3965 15.1357C22.8359 15.3232 23.2695 15.417 23.6973 15.417C24.2129 15.417 24.6582 15.3203 25.0332 15.127C25.4082 14.9336 25.6982 14.6465 25.9033 14.2656C26.1143 13.8906 26.2197 13.4277 26.2197 12.877V5.58203L26.3691 3.49023ZM19.8213 8.35059V8.16602C19.8213 7.43945 19.9062 6.78027 20.0762 6.18848C20.252 5.59082 20.501 5.07812 20.8232 4.65039C21.1514 4.22266 21.5469 3.89453 22.0098 3.66602C22.4727 3.43164 22.9941 3.31445 23.5742 3.31445C24.1719 3.31445 24.6934 3.41992 25.1387 3.63086C25.5898 3.83594 25.9707 4.1377 26.2812 4.53613C26.5977 4.92871 26.8467 5.40332 27.0283 5.95996C27.21 6.5166 27.3359 7.14648 27.4062 7.84961V8.6582C27.3418 9.35547 27.2158 9.98242 27.0283 10.5391C26.8467 11.0957 26.5977 11.5703 26.2812 11.9629C25.9707 12.3555 25.5898 12.6572 25.1387 12.8682C24.6875 13.0732 24.1602 13.1758 23.5566 13.1758C22.9883 13.1758 22.4727 13.0557 22.0098 12.8154C21.5527 12.5752 21.1602 12.2383 20.832 11.8047C20.5039 11.3711 20.252 10.8613 20.0762 10.2754C19.9062 9.68359 19.8213 9.04199 19.8213 8.35059ZM21.4473 8.16602V8.35059C21.4473 8.8252 21.4941 9.27051 21.5879 9.68652C21.6875 10.1025 21.8369 10.4688 22.0361 10.7852C22.2412 11.1016 22.502 11.3506 22.8184 11.5322C23.1348 11.708 23.5127 11.7959 23.9521 11.7959C24.4912 11.7959 24.9365 11.6816 25.2881 11.4531C25.6396 11.2246 25.918 10.9229 26.123 10.5479C26.334 10.1729 26.498 9.76562 26.6152 9.32617V7.20801C26.5508 6.88574 26.4512 6.5752 26.3164 6.27637C26.1875 5.97168 26.0176 5.70215 25.8066 5.46777C25.6016 5.22754 25.3467 5.03711 25.042 4.89648C24.7373 4.75586 24.3799 4.68555 23.9697 4.68555C23.5244 4.68555 23.1406 4.7793 22.8184 4.9668C22.502 5.14844 22.2412 5.40039 22.0361 5.72266C21.8369 6.03906 21.6875 6.4082 21.5879 6.83008C21.4941 7.24609 21.4473 7.69141 21.4473 8.16602ZM32.082 3.49023V13H30.4473V3.49023H32.082ZM30.3242 0.967773C30.3242 0.704102 30.4033 0.481445 30.5615 0.299805C30.7256 0.118164 30.9658 0.0273438 31.2822 0.0273438C31.5928 0.0273438 31.8301 0.118164 31.9941 0.299805C32.1641 0.481445 32.249 0.704102 32.249 0.967773C32.249 1.21973 32.1641 1.43652 31.9941 1.61816C31.8301 1.79395 31.5928 1.88184 31.2822 1.88184C30.9658 1.88184 30.7256 1.79395 30.5615 1.61816C30.4033 1.43652 30.3242 1.21973 30.3242 0.967773ZM36.3184 5.52051V13H34.6924V3.49023H36.2305L36.3184 5.52051ZM35.9316 7.88477L35.2549 7.8584C35.2607 7.20801 35.3574 6.60742 35.5449 6.05664C35.7324 5.5 35.9961 5.0166 36.3359 4.60645C36.6758 4.19629 37.0801 3.87988 37.5488 3.65723C38.0234 3.42871 38.5479 3.31445 39.1221 3.31445C39.5908 3.31445 40.0127 3.37891 40.3877 3.50781C40.7627 3.63086 41.082 3.83008 41.3457 4.10547C41.6152 4.38086 41.8203 4.73828 41.9609 5.17773C42.1016 5.61133 42.1719 6.1416 42.1719 6.76855V13H40.5371V6.75098C40.5371 6.25293 40.4639 5.85449 40.3174 5.55566C40.1709 5.25098 39.957 5.03125 39.6758 4.89648C39.3945 4.75586 39.0488 4.68555 38.6387 4.68555C38.2344 4.68555 37.8652 4.77051 37.5312 4.94043C37.2031 5.11035 36.9189 5.34473 36.6787 5.64355C36.4443 5.94238 36.2598 6.28516 36.125 6.67188C35.9961 7.05273 35.9316 7.45703 35.9316 7.88477Z" fill="#8A8A8A"/>
</svg>