<svg width="60" height="18" viewBox="0 0 60 18" fill="none" xmlns="http://www.w3.org/2000/svg">
    <path d="M7.91895 10.6777C7.91895 10.4316 7.88086 10.2119 7.80469 10.0186C7.73438 9.81934 7.60254 9.64062 7.40918 9.48242C7.22168 9.31836 6.95508 9.16016 6.60938 9.00781C6.26953 8.84961 5.83008 8.68555 5.29102 8.51562C4.69336 8.32812 4.13672 8.11719 3.62109 7.88281C3.10547 7.64844 2.65137 7.37598 2.25879 7.06543C1.87207 6.75488 1.57031 6.39746 1.35352 5.99316C1.13672 5.58301 1.02832 5.1084 1.02832 4.56934C1.02832 4.04199 1.13965 3.56152 1.3623 3.12793C1.59082 2.69434 1.91309 2.32227 2.3291 2.01172C2.74512 1.69531 3.23438 1.45215 3.79688 1.28223C4.36523 1.1123 4.99219 1.02734 5.67773 1.02734C6.62695 1.02734 7.44727 1.2002 8.13867 1.5459C8.83594 1.8916 9.375 2.36035 9.75586 2.95215C10.1367 3.54395 10.3271 4.20898 10.3271 4.94727H7.91895C7.91895 4.54883 7.83398 4.19727 7.66406 3.89258C7.5 3.58789 7.24805 3.34766 6.9082 3.17188C6.57422 2.99609 6.15234 2.9082 5.64258 2.9082C5.15039 2.9082 4.74023 2.98145 4.41211 3.12793C4.08984 3.27441 3.84668 3.47363 3.68262 3.72559C3.52441 3.97754 3.44531 4.25879 3.44531 4.56934C3.44531 4.80371 3.50098 5.01465 3.6123 5.20215C3.72363 5.38379 3.89062 5.55664 4.11328 5.7207C4.33594 5.87891 4.61133 6.02832 4.93945 6.16895C5.27344 6.30371 5.66016 6.43848 6.09961 6.57324C6.80273 6.78418 7.41797 7.01855 7.94531 7.27637C8.47852 7.53418 8.9209 7.82715 9.27246 8.15527C9.62988 8.4834 9.89648 8.85254 10.0723 9.2627C10.2539 9.67285 10.3447 10.1387 10.3447 10.6602C10.3447 11.2109 10.2363 11.7031 10.0195 12.1367C9.80273 12.5703 9.49219 12.9395 9.08789 13.2441C8.68359 13.5488 8.19727 13.7803 7.62891 13.9385C7.06641 14.0967 6.43652 14.1758 5.73926 14.1758C5.11816 14.1758 4.50293 14.0938 3.89355 13.9297C3.29004 13.7598 2.74219 13.5078 2.25 13.1738C1.75781 12.834 1.36523 12.4062 1.07227 11.8906C0.779297 11.3691 0.632812 10.7598 0.632812 10.0625H3.05859C3.05859 10.4668 3.12305 10.8125 3.25195 11.0996C3.38672 11.3809 3.57422 11.6123 3.81445 11.7939C4.06055 11.9697 4.34766 12.0986 4.67578 12.1807C5.00391 12.2627 5.3584 12.3037 5.73926 12.3037C6.23145 12.3037 6.63574 12.2363 6.95215 12.1016C7.27441 11.9609 7.51465 11.7676 7.67285 11.5215C7.83691 11.2754 7.91895 10.9941 7.91895 10.6777ZM14.4932 4.49023V14H12.1641V4.49023H14.4932ZM12.0059 2.00293C12.0059 1.65723 12.123 1.37012 12.3574 1.1416C12.5977 0.913086 12.9199 0.798828 13.3242 0.798828C13.7285 0.798828 14.0479 0.913086 14.2822 1.1416C14.5225 1.37012 14.6426 1.65723 14.6426 2.00293C14.6426 2.34277 14.5225 2.62695 14.2822 2.85547C14.0479 3.08398 13.7285 3.19824 13.3242 3.19824C12.9199 3.19824 12.5977 3.08398 12.3574 2.85547C12.123 2.62695 12.0059 2.34277 12.0059 2.00293ZM22.7549 4.49023H24.8643V13.71C24.8643 14.5713 24.6768 15.3008 24.3018 15.8984C23.9326 16.502 23.4141 16.959 22.7461 17.2695C22.0781 17.5859 21.3018 17.7441 20.417 17.7441C20.0361 17.7441 19.623 17.6914 19.1777 17.5859C18.7383 17.4805 18.3135 17.3135 17.9033 17.085C17.499 16.8623 17.1621 16.5723 16.8926 16.2148L17.9385 14.8438C18.2549 15.2129 18.6123 15.4912 19.0107 15.6787C19.4092 15.8721 19.8398 15.9688 20.3027 15.9688C20.7715 15.9688 21.1699 15.8809 21.498 15.7051C21.832 15.5352 22.0869 15.2832 22.2627 14.9492C22.4443 14.6211 22.5352 14.2168 22.5352 13.7363V6.66113L22.7549 4.49023ZM16.3301 9.35938V9.1748C16.3301 8.44824 16.418 7.78906 16.5938 7.19727C16.7695 6.59961 17.0215 6.08691 17.3496 5.65918C17.6836 5.23145 18.085 4.90039 18.5537 4.66602C19.0283 4.43164 19.5615 4.31445 20.1533 4.31445C20.7803 4.31445 21.3076 4.42871 21.7354 4.65723C22.1689 4.88574 22.5264 5.21094 22.8076 5.63281C23.0947 6.05469 23.3174 6.55566 23.4756 7.13574C23.6396 7.70996 23.7656 8.34277 23.8535 9.03418V9.53516C23.7715 10.209 23.6396 10.8271 23.458 11.3896C23.2822 11.9521 23.0479 12.4443 22.7549 12.8662C22.4619 13.2822 22.0986 13.6045 21.665 13.833C21.2314 14.0615 20.7217 14.1758 20.1357 14.1758C19.5498 14.1758 19.0225 14.0557 18.5537 13.8154C18.085 13.5752 17.6836 13.2383 17.3496 12.8047C17.0215 12.3711 16.7695 11.8613 16.5938 11.2754C16.418 10.6895 16.3301 10.0508 16.3301 9.35938ZM18.6504 9.1748V9.35938C18.6504 9.76953 18.6914 10.1533 18.7734 10.5107C18.8555 10.8682 18.9814 11.1846 19.1514 11.46C19.3213 11.7295 19.5352 11.9404 19.793 12.0928C20.0508 12.2451 20.3584 12.3213 20.7158 12.3213C21.1963 12.3213 21.5889 12.2217 21.8936 12.0225C22.2041 11.8174 22.4385 11.5391 22.5967 11.1875C22.7607 10.8301 22.8662 10.4287 22.9131 9.9834V8.60352C22.8838 8.25195 22.8193 7.92676 22.7197 7.62793C22.626 7.3291 22.4941 7.07129 22.3242 6.85449C22.1543 6.6377 21.9375 6.46777 21.6738 6.34473C21.4102 6.22168 21.0967 6.16016 20.7334 6.16016C20.3818 6.16016 20.0742 6.23926 19.8105 6.39746C19.5469 6.5498 19.3301 6.76367 19.1602 7.03906C18.9902 7.31445 18.8613 7.63379 18.7734 7.99707C18.6914 8.36035 18.6504 8.75293 18.6504 9.1748ZM29.2324 6.52051V14H26.9121V4.49023H29.0918L29.2324 6.52051ZM28.8633 8.90234H28.1777C28.1836 8.21094 28.2773 7.58398 28.459 7.02148C28.6406 6.45898 28.8955 5.97559 29.2236 5.57129C29.5576 5.16699 29.9531 4.85645 30.4102 4.63965C30.8672 4.42285 31.377 4.31445 31.9395 4.31445C32.3965 4.31445 32.8096 4.37891 33.1787 4.50781C33.5479 4.63672 33.8643 4.8418 34.1279 5.12305C34.3975 5.4043 34.6025 5.77344 34.7432 6.23047C34.8896 6.68164 34.9629 7.23828 34.9629 7.90039V14H32.625V7.88281C32.625 7.44922 32.5605 7.10645 32.4316 6.85449C32.3086 6.60254 32.127 6.42383 31.8867 6.31836C31.6523 6.21289 31.3623 6.16016 31.0166 6.16016C30.6592 6.16016 30.3457 6.2334 30.0762 6.37988C29.8125 6.52051 29.5898 6.7168 29.4082 6.96875C29.2324 7.2207 29.0977 7.51074 29.0039 7.83887C28.9102 8.16699 28.8633 8.52148 28.8633 8.90234ZM47.1533 11.7412V4.49023H49.4912V14H47.2939L47.1533 11.7412ZM47.4521 9.77246L48.1729 9.75488C48.1729 10.3936 48.1025 10.9824 47.9619 11.5215C47.8213 12.0605 47.6016 12.5293 47.3027 12.9277C47.0098 13.3203 46.6377 13.6279 46.1865 13.8506C45.7354 14.0674 45.2021 14.1758 44.5869 14.1758C44.1182 14.1758 43.6904 14.1113 43.3037 13.9824C42.917 13.8477 42.583 13.6396 42.3018 13.3584C42.0264 13.0713 41.8125 12.7051 41.6602 12.2598C41.5078 11.8086 41.4316 11.2666 41.4316 10.6338V4.49023H43.752V10.6514C43.752 10.9678 43.7871 11.2314 43.8574 11.4424C43.9336 11.6533 44.0361 11.8262 44.165 11.9609C44.2998 12.0898 44.4551 12.1836 44.6309 12.2422C44.8125 12.2949 45.0059 12.3213 45.2109 12.3213C45.7734 12.3213 46.2158 12.21 46.5381 11.9873C46.8662 11.7588 47.1006 11.4541 47.2412 11.0732C47.3818 10.6865 47.4521 10.2529 47.4521 9.77246ZM53.8682 6.31836V17.6562H51.5391V4.49023H53.6924L53.8682 6.31836ZM59.9766 9.14844V9.33301C59.9766 10.0244 59.8945 10.666 59.7305 11.2578C59.5723 11.8438 59.3379 12.3564 59.0273 12.7959C58.7168 13.2295 58.3301 13.5693 57.8672 13.8154C57.4102 14.0557 56.8828 14.1758 56.2852 14.1758C55.6992 14.1758 55.1895 14.0645 54.7559 13.8418C54.3223 13.6133 53.9561 13.291 53.6572 12.875C53.3584 12.459 53.1182 11.9756 52.9365 11.4248C52.7607 10.8682 52.6289 10.2617 52.541 9.60547V9.0166C52.6289 8.31934 52.7607 7.68652 52.9365 7.11816C53.1182 6.54395 53.3584 6.04883 53.6572 5.63281C53.9561 5.21094 54.3193 4.88574 54.7471 4.65723C55.1807 4.42871 55.6875 4.31445 56.2676 4.31445C56.8711 4.31445 57.4014 4.42871 57.8584 4.65723C58.3213 4.88574 58.7109 5.21387 59.0273 5.6416C59.3438 6.06934 59.5811 6.5791 59.7393 7.1709C59.8975 7.7627 59.9766 8.42188 59.9766 9.14844ZM57.6475 9.33301V9.14844C57.6475 8.72656 57.6094 8.33691 57.5332 7.97949C57.457 7.61621 57.3398 7.2998 57.1816 7.03027C57.0234 6.75488 56.8184 6.54102 56.5664 6.38867C56.3145 6.23633 56.0098 6.16016 55.6523 6.16016C55.2949 6.16016 54.9873 6.21875 54.7295 6.33594C54.4717 6.45312 54.2607 6.62012 54.0967 6.83691C53.9326 7.05371 53.8037 7.31152 53.71 7.61035C53.6221 7.90332 53.5635 8.22852 53.5342 8.58594V10.0449C53.5869 10.4785 53.6895 10.8682 53.8418 11.2139C53.9941 11.5596 54.2168 11.835 54.5098 12.04C54.8086 12.2451 55.1953 12.3477 55.6699 12.3477C56.0273 12.3477 56.332 12.2686 56.584 12.1104C56.8359 11.9521 57.041 11.7354 57.1992 11.46C57.3574 11.1787 57.4717 10.8564 57.542 10.4932C57.6123 10.1299 57.6475 9.74316 57.6475 9.33301Z" fill="#1ABC00"/>
</svg>
